<svg width="18" height="18" viewBox="0 0 18 18" fill="none" xmlns="http://www.w3.org/2000/svg">
<rect width="18" height="18" rx="4.72131" fill="white" style="fill:white;fill-opacity:1;"/>
<path fill-rule="evenodd" clip-rule="evenodd" d="M4.87524 3.39343C4.30159 3.39343 3.83618 3.85884 3.83618 4.4325V12.411C3.83642 12.9845 4.30174 13.4491 4.87524 13.4491H7.89673C7.95553 13.4491 8.0142 13.4462 8.07251 13.4442L8.63306 15.078C9.01954 16.2027 10.5897 16.259 11.0559 15.1649L12.3381 12.1552L15.3489 10.8729C16.4428 10.4066 16.3857 8.83653 15.261 8.45007L12.8616 7.62488C12.4798 5.22653 10.4025 3.39343 7.89673 3.39343H4.87524ZM10.22 14.8085L10.2053 14.8387C10.0504 15.1356 9.60484 15.1097 9.49243 14.7831L8.99341 13.328C9.92165 13.1215 10.7528 12.6589 11.4094 12.0175L10.22 14.8085ZM14.9661 9.30945L14.9963 9.32117C15.3037 9.45428 15.31 9.90033 14.9924 10.036L12.0139 11.3055C12.554 10.536 12.8849 9.60904 12.9211 8.60632L14.9661 9.30945Z" fill="black" style="fill:black;fill-opacity:1;"/>
<path d="M5.66736 5.11814C5.72346 4.89586 6.03931 4.89586 6.09541 5.11814L6.16312 5.38643C6.18298 5.46512 6.24445 5.52658 6.32313 5.54645L6.59156 5.61415C6.81378 5.67028 6.81378 5.98608 6.59156 6.04221L6.32313 6.10991C6.24445 6.12978 6.18298 6.19124 6.16312 6.26993L6.09541 6.53822C6.03931 6.7605 5.72346 6.7605 5.66736 6.53822L5.59965 6.26993C5.57979 6.19124 5.51833 6.12977 5.43964 6.10991L5.17135 6.04221C4.94907 5.98611 4.94907 5.67025 5.17135 5.61415L5.43964 5.54645C5.51833 5.52659 5.57979 5.46512 5.59965 5.38643L5.66736 5.11814Z" fill="white" style="fill:white;fill-opacity:1;"/>
<path d="M7.14574 7.95262C6.93497 7.33924 7.52225 6.75197 8.13563 6.96274L14.9658 9.30965C15.3032 9.42559 15.3201 9.89647 14.9919 10.0363L11.9338 11.3395C11.7487 11.4184 11.6014 11.5657 11.5225 11.7508L10.2193 14.8089C10.0795 15.1371 9.60859 15.1202 9.49264 14.7828L7.14574 7.95262Z" fill="white" style="fill:white;fill-opacity:1;"/>
</svg>
