<svg width="18" height="18" viewBox="0 0 18 18" fill="none" xmlns="http://www.w3.org/2000/svg">
<rect width="18" height="18" rx="4.72131" fill="black" style="fill:black;fill-opacity:1;"/>
<path fill-rule="evenodd" clip-rule="evenodd" d="M4.87524 3.39343C4.30159 3.39343 3.83618 3.85884 3.83618 4.4325V12.411C3.83642 12.9845 4.30174 13.4491 4.87524 13.4491H7.89673C7.95553 13.4491 8.0142 13.4462 8.07251 13.4442L8.63306 15.078C9.01954 16.2027 10.5897 16.259 11.0559 15.1649L12.3381 12.1552L15.3489 10.8729C16.4428 10.4066 16.3857 8.83653 15.261 8.45007L12.8616 7.62488C12.4798 5.22653 10.4025 3.39343 7.89673 3.39343H4.87524ZM10.22 14.8085L10.2053 14.8387C10.0504 15.1356 9.60484 15.1097 9.49243 14.7831L8.99341 13.328C9.92165 13.1215 10.7528 12.6589 11.4094 12.0175L10.22 14.8085ZM14.9661 9.30945L14.9963 9.32117C15.3037 9.45428 15.31 9.90033 14.9924 10.036L12.0139 11.3055C12.554 10.536 12.8849 9.60904 12.9211 8.60632L14.9661 9.30945Z" fill="white" style="fill:white;fill-opacity:1;"/>
<path d="M5.6676 5.11812C5.7237 4.89585 6.03956 4.89585 6.09566 5.11812L6.16337 5.38642C6.18322 5.4651 6.2447 5.52656 6.32338 5.54643L6.5918 5.61414C6.81402 5.67026 6.81402 5.98607 6.5918 6.04219L6.32338 6.1099C6.24469 6.12976 6.18323 6.19123 6.16337 6.26991L6.09566 6.53821C6.03956 6.76048 5.7237 6.76048 5.6676 6.53821L5.5999 6.26991C5.58004 6.19122 5.51858 6.12976 5.43988 6.1099L5.17159 6.04219C4.94931 5.98609 4.94931 5.67024 5.17159 5.61414L5.43988 5.54643C5.51858 5.52657 5.58004 5.46511 5.5999 5.38642L5.6676 5.11812Z" fill="black" style="fill:black;fill-opacity:1;"/>
<path d="M7.14601 7.95261C6.93525 7.33923 7.52252 6.75196 8.1359 6.96273L14.966 9.30963C15.3035 9.42557 15.3204 9.89646 14.9922 10.0363L11.9341 11.3395C11.749 11.4183 11.6016 11.5657 11.5228 11.7508L10.2196 14.8089C10.0798 15.1371 9.60886 15.1202 9.49292 14.7828L7.14601 7.95261Z" fill="black" style="fill:black;fill-opacity:1;"/>
</svg>
